<svg width="85" height="37" viewBox="0 0 85 37" fill="none" xmlns="http://www.w3.org/2000/svg">
<g clip-path="url(#clip0_8342_23566)">
<g clip-path="url(#clip1_8342_23566)">
<path d="M2.47411 19.6465C2.4733 19.7107 2.47249 19.7749 2.47168 19.8391C2.47244 19.7761 2.4733 19.7132 2.47411 19.6502V19.6465Z" fill="#FEFEFD"/>
<path d="M15.8574 10.2284C16.1313 10.2139 16.4264 10.1986 16.6738 10.2538C16.8131 10.2849 16.9057 10.3359 16.9853 10.4579C17.0366 10.7379 17.0822 11.0149 17.0927 11.2997C17.1152 11.9036 17.1102 12.512 17.1045 13.1191C17.1018 13.3944 17.0986 13.6699 17.0986 13.9443V19.1747C17.0988 19.3464 17.1032 19.6354 17.1094 19.9872C17.1306 21.2194 17.1655 23.223 17.0547 23.665C16.9752 23.9815 16.8134 24.1273 16.539 24.289C16.294 24.3201 16.0384 24.3264 15.7851 24.332C15.6526 24.3349 15.5203 24.3371 15.3906 24.3437C14.1693 24.4057 12.8796 24.5313 11.7578 25.0497C11.4575 25.1885 11.1565 25.3518 10.8926 25.5527C10.7573 25.6556 10.6054 25.7986 10.4443 25.9511C10.0426 26.3314 9.57843 26.7704 9.1406 26.7949C8.63585 26.8227 8.15742 26.3906 7.7158 25.9921C7.50573 25.8026 7.3034 25.6213 7.1113 25.4999C6.64531 25.2057 6.11828 24.9786 5.59568 24.8075C4.73364 24.5256 3.8203 24.3808 2.91599 24.3271C2.77945 24.3189 2.63846 24.3198 2.49705 24.3202C2.2347 24.3211 1.96907 24.3221 1.72165 24.2675C1.50615 24.2196 1.36709 24.1102 1.20505 23.9667C1.08639 23.6848 1.04974 23.3361 1.03513 23.0322C1.00898 22.4886 1.01561 21.9385 1.02244 21.3906C1.02549 21.1475 1.02815 20.9046 1.0283 20.663L1.0322 16.037L1.0283 12.5361C1.02819 12.3834 1.02135 12.2174 1.01462 12.0458C0.996492 11.5808 0.976943 11.0742 1.0781 10.6777C1.13374 10.4598 1.25995 10.3634 1.44236 10.247C3.44915 10.1169 5.64101 10.5336 7.40427 11.5146C7.98996 11.8404 8.51748 12.2395 9.05076 12.6425C9.35053 12.419 9.65309 12.1953 9.96189 11.9843C11.6218 10.85 13.5984 10.2901 15.6006 10.2402C15.6823 10.2381 15.7689 10.2331 15.8574 10.2284ZM15.626 11.7997C15.3829 11.8017 15.1254 11.7863 14.8847 11.8183C13.2376 11.9672 11.1243 12.5698 10.0058 13.8818C9.95847 13.9378 9.91321 13.9959 9.86912 14.0546L9.86619 24.3554C10.0491 24.2225 10.2302 24.085 10.416 23.956C11.9548 23.0367 13.8799 22.8789 15.6338 22.7529C15.6339 19.1041 15.6824 15.4478 15.626 11.7997ZM2.50095 11.8017C2.4632 13.3259 2.4715 14.8563 2.47947 16.3837C2.48276 17.0098 2.48621 17.6356 2.4863 18.2607C2.4864 18.72 2.48045 19.1829 2.47458 19.6464V19.6503C2.46165 20.6763 2.44891 21.7083 2.49998 22.7226C4.52641 22.897 6.56099 23.0971 8.249 24.3359C8.23902 20.9173 8.25777 17.499 8.30564 14.081C6.97861 12.6801 4.90215 11.8525 2.98728 11.7988C2.82524 11.7953 2.66289 11.7964 2.50095 11.8017Z" fill="#010101"/>
<path d="M15.8574 10.2284L15.8704 10.4725L15.8704 10.4725L15.8574 10.2284ZM16.6738 10.2538L16.6206 10.4923L16.6206 10.4923L16.6738 10.2538ZM16.9853 10.4579L17.2257 10.4139L17.2168 10.3655L17.1899 10.3243L16.9853 10.4579ZM17.0927 11.2997L16.8486 11.3088L16.8486 11.3088L17.0927 11.2997ZM17.1045 13.1191L17.3488 13.1214V13.1214L17.1045 13.1191ZM17.0986 19.1747H16.8543V19.175L17.0986 19.1747ZM17.1094 19.9872L17.3537 19.983V19.983L17.1094 19.9872ZM17.0547 23.665L17.2917 23.7245L17.2917 23.7244L17.0547 23.665ZM16.539 24.289L16.5698 24.5314L16.6197 24.5251L16.6631 24.4995L16.539 24.289ZM15.7851 24.332L15.7797 24.0877H15.7797L15.7851 24.332ZM15.3906 24.3437L15.3783 24.0996L15.3782 24.0996L15.3906 24.3437ZM11.7578 25.0497L11.8603 25.2715L11.8603 25.2715L11.7578 25.0497ZM10.8926 25.5527L11.0405 25.7471L11.0405 25.7471L10.8926 25.5527ZM10.4443 25.9511L10.2763 25.7736L10.2763 25.7737L10.4443 25.9511ZM9.1406 26.7949L9.15405 27.0388L9.15422 27.0388L9.1406 26.7949ZM7.7158 25.9921L7.87949 25.8107L7.87947 25.8107L7.7158 25.9921ZM7.1113 25.4999L7.24179 25.2933L7.24175 25.2933L7.1113 25.4999ZM5.59568 24.8075L5.67169 24.5753L5.67163 24.5753L5.59568 24.8075ZM2.91599 24.3271L2.90132 24.571L2.90149 24.571L2.91599 24.3271ZM2.49705 24.3202L2.49622 24.0759H2.49622L2.49705 24.3202ZM1.72165 24.2675L1.66862 24.506L1.66899 24.5061L1.72165 24.2675ZM1.20505 23.9667L0.979835 24.0615L1.00141 24.1128L1.04304 24.1497L1.20505 23.9667ZM1.03513 23.0322L1.27921 23.0204L1.27921 23.0204L1.03513 23.0322ZM1.02244 21.3906L0.778099 21.3875L0.778099 21.3875L1.02244 21.3906ZM1.0283 20.663L0.783939 20.6628L0.783939 20.6629L1.0283 20.663ZM1.0322 16.037L1.27656 16.0372L1.27656 16.0368L1.0322 16.037ZM1.0283 12.5361L0.783939 12.5362L0.783939 12.5363L1.0283 12.5361ZM1.01462 12.0458L0.770453 12.0553L0.770455 12.0554L1.01462 12.0458ZM1.0781 10.6777L0.841342 10.6172L0.841328 10.6173L1.0781 10.6777ZM1.44236 10.247L1.42655 10.0032L1.36387 10.0072L1.31092 10.041L1.44236 10.247ZM7.40427 11.5146L7.28548 11.7281L7.28548 11.7281L7.40427 11.5146ZM9.05076 12.6425L8.90342 12.8375L9.04978 12.9481L9.19684 12.8384L9.05076 12.6425ZM9.96189 11.9843L10.0997 12.1861L10.0998 12.1861L9.96189 11.9843ZM15.6006 10.2402L15.6066 10.4844L15.6067 10.4844L15.6006 10.2402ZM15.626 11.7997L15.8703 11.796L15.8665 11.5534L15.6239 11.5554L15.626 11.7997ZM14.8847 11.8183L14.9068 12.0619L14.9169 12.0605L14.8847 11.8183ZM10.0058 13.8818L9.81988 13.7232L9.81918 13.7241L10.0058 13.8818ZM9.86912 14.0546L9.67375 13.9078L9.62478 13.973L9.62476 14.0545L9.86912 14.0546ZM9.86619 24.3554L9.62183 24.3553L9.62169 24.8352L10.0099 24.5531L9.86619 24.3554ZM10.416 23.956L10.2907 23.7462L10.2835 23.7505L10.2766 23.7553L10.416 23.956ZM15.6338 22.7529L15.6513 22.9966L15.8781 22.9803L15.8781 22.7529L15.6338 22.7529ZM2.50095 11.8017L2.49299 11.5575L2.26238 11.565L2.25667 11.7956L2.50095 11.8017ZM2.47947 16.3837L2.23511 16.385V16.385L2.47947 16.3837ZM2.4863 18.2607L2.24195 18.2607V18.2607L2.4863 18.2607ZM2.47458 19.6464L2.23023 19.6433V19.6464H2.47458ZM2.47458 19.6503L2.71894 19.6534V19.6503H2.47458ZM2.49998 22.7226L2.25593 22.7349L2.26665 22.9478L2.47902 22.966L2.49998 22.7226ZM8.249 24.3359L8.10443 24.5329L8.49477 24.8193L8.49335 24.3352L8.249 24.3359ZM8.30564 14.081L8.54997 14.0844L8.55136 13.9851L8.48304 13.9129L8.30564 14.081ZM2.98728 11.7988L2.99414 11.5545L2.99251 11.5545L2.98728 11.7988ZM15.8574 10.2284L15.8704 10.4725C16.1529 10.4574 16.4122 10.4459 16.6206 10.4923L16.6738 10.2538L16.727 10.0153C16.4405 9.95145 16.1097 9.97033 15.8444 9.98443L15.8574 10.2284ZM16.6738 10.2538L16.6206 10.4923C16.6745 10.5043 16.703 10.5167 16.7215 10.5284C16.738 10.5388 16.7571 10.5553 16.7807 10.5915L16.9853 10.4579L17.1899 10.3243C17.1339 10.2386 17.0669 10.1685 16.9824 10.1152C16.8999 10.0631 16.8125 10.0344 16.727 10.0153L16.6738 10.2538ZM16.9853 10.4579L16.745 10.5019C16.796 10.7806 16.8387 11.0428 16.8486 11.3088L17.0927 11.2997L17.3369 11.2907C17.3257 10.987 17.2772 10.6952 17.2257 10.4139L16.9853 10.4579ZM17.0927 11.2997L16.8486 11.3088C16.8708 11.9061 16.8659 12.509 16.8601 13.1167L17.1045 13.1191L17.3488 13.1214C17.3546 12.515 17.3597 11.9011 17.3369 11.2906L17.0927 11.2997ZM17.1045 13.1191L16.8601 13.1167C16.8575 13.3913 16.8543 13.6684 16.8543 13.9443H17.0986H17.343C17.343 13.6714 17.3462 13.3975 17.3488 13.1214L17.1045 13.1191ZM17.0986 13.9443H16.8543V19.1747H17.0986H17.343V13.9443H17.0986ZM17.0986 19.1747L16.8543 19.175C16.8544 19.3491 16.8589 19.6402 16.865 19.9915L17.1094 19.9872L17.3537 19.983C17.3476 19.6305 17.3432 19.3438 17.343 19.1745L17.0986 19.1747ZM17.1094 19.9872L16.865 19.9915C16.8757 20.6081 16.8897 21.4144 16.8872 22.1216C16.886 22.4753 16.8806 22.8019 16.8689 23.0663C16.8567 23.3389 16.8384 23.5227 16.8177 23.6055L17.0547 23.665L17.2917 23.7244C17.3263 23.5863 17.3453 23.3538 17.3571 23.088C17.3693 22.8139 17.3747 22.4797 17.3759 22.1233C17.3784 21.4101 17.3643 20.5986 17.3537 19.983L17.1094 19.9872ZM17.0547 23.665L16.8177 23.6054C16.786 23.7315 16.7419 23.8106 16.6865 23.8736C16.6274 23.9407 16.5448 24.0019 16.415 24.0785L16.539 24.289L16.6631 24.4995C16.8076 24.4144 16.943 24.3219 17.0534 24.1965C17.1673 24.067 17.2438 23.9149 17.2917 23.7245L17.0547 23.665ZM16.539 24.289L16.5083 24.0466C16.2779 24.0758 16.0348 24.082 15.7797 24.0877L15.7851 24.332L15.7905 24.5763C16.0419 24.5707 16.3101 24.5644 16.5698 24.5314L16.539 24.289ZM15.7851 24.332L15.7797 24.0877C15.6491 24.0905 15.5124 24.0929 15.3783 24.0996L15.3906 24.3437L15.4029 24.5877C15.5282 24.5814 15.656 24.5792 15.7905 24.5763L15.7851 24.332ZM15.3906 24.3437L15.3782 24.0996C14.1551 24.1618 12.8235 24.288 11.6553 24.8279L11.7578 25.0497L11.8603 25.2715C12.9356 24.7745 14.1835 24.6497 15.403 24.5877L15.3906 24.3437ZM11.7578 25.0497L11.6553 24.8279C11.3463 24.9707 11.0279 25.1426 10.7446 25.3582L10.8926 25.5527L11.0405 25.7471C11.285 25.5611 11.5687 25.4063 11.8603 25.2715L11.7578 25.0497ZM10.8926 25.5527L10.7446 25.3582C10.5967 25.4707 10.4348 25.6237 10.2763 25.7736L10.4443 25.9511L10.6123 26.1286C10.7761 25.9735 10.9178 25.8405 11.0405 25.7471L10.8926 25.5527ZM10.4443 25.9511L10.2763 25.7737C10.073 25.9661 9.86825 26.1594 9.6625 26.3086C9.45302 26.4606 9.27461 26.5426 9.12698 26.5509L9.1406 26.7949L9.15422 27.0388C9.44442 27.0226 9.71701 26.8729 9.94951 26.7042C10.1857 26.5328 10.4139 26.3164 10.6123 26.1285L10.4443 25.9511ZM9.1406 26.7949L9.12715 26.5509C8.9493 26.5607 8.75616 26.4902 8.53752 26.3483C8.31893 26.2065 8.1036 26.0129 7.87949 25.8107L7.7158 25.9921L7.5521 26.1735C7.76962 26.3698 8.01431 26.5914 8.27152 26.7583C8.52869 26.9252 8.82714 27.0569 9.15405 27.0388L9.1406 26.7949ZM7.7158 25.9921L7.87947 25.8107C7.6736 25.625 7.45506 25.428 7.24179 25.2933L7.1113 25.4999L6.98081 25.7065C7.15174 25.8145 7.33786 25.9803 7.55212 26.1736L7.7158 25.9921ZM7.1113 25.4999L7.24175 25.2933C6.7544 24.9856 6.20784 24.7508 5.67169 24.5753L5.59568 24.8075L5.51967 25.0398C6.02871 25.2064 6.53622 25.4258 6.98085 25.7066L7.1113 25.4999ZM5.59568 24.8075L5.67163 24.5753C4.78516 24.2854 3.85034 24.1378 2.93049 24.0832L2.91599 24.3271L2.90149 24.571C3.79026 24.6238 4.68211 24.7659 5.51973 25.0398L5.59568 24.8075ZM2.91599 24.3271L2.93067 24.0832C2.7848 24.0744 2.63539 24.0754 2.49622 24.0759L2.49705 24.3202L2.49787 24.5646C2.64152 24.5641 2.7741 24.5633 2.90132 24.571L2.91599 24.3271ZM2.49705 24.3202L2.49622 24.0759C2.22825 24.0768 1.99058 24.0766 1.77432 24.0289L1.72165 24.2675L1.66899 24.5061C1.94755 24.5676 2.24115 24.5655 2.49787 24.5646L2.49705 24.3202ZM1.72165 24.2675L1.77469 24.029C1.62341 23.9953 1.52371 23.9225 1.36706 23.7838L1.20505 23.9667L1.04304 24.1497C1.21047 24.2979 1.38888 24.4438 1.66862 24.506L1.72165 24.2675ZM1.20505 23.9667L1.43027 23.8719C1.3294 23.6323 1.29364 23.3206 1.27921 23.0204L1.03513 23.0322L0.791057 23.0439C0.80585 23.3516 0.843376 23.7373 0.979835 24.0615L1.20505 23.9667ZM1.03513 23.0322L1.27921 23.0204C1.25347 22.4855 1.25993 21.9427 1.26677 21.3936L1.02244 21.3906L0.778099 21.3875C0.77129 21.9343 0.764493 22.4917 0.791057 23.0439L1.03513 23.0322ZM1.02244 21.3906L1.26677 21.3936C1.26983 21.1504 1.27251 20.9063 1.27265 20.6632L1.0283 20.663L0.783939 20.6629C0.783794 20.9029 0.781151 21.1445 0.778099 21.3875L1.02244 21.3906ZM1.0283 20.663L1.27265 20.6632L1.27656 16.0372L1.0322 16.037L0.787846 16.0368L0.783939 20.6628L1.0283 20.663ZM1.0322 16.037L1.27656 16.0368L1.27265 12.5358L1.0283 12.5361L0.783939 12.5363L0.787846 16.0373L1.0322 16.037ZM1.0283 12.5361L1.27265 12.5359C1.27254 12.3775 1.26545 12.2062 1.25879 12.0363L1.01462 12.0458L0.770455 12.0554C0.777242 12.2286 0.78384 12.3893 0.783939 12.5362L1.0283 12.5361ZM1.01462 12.0458L1.25879 12.0363C1.24023 11.5603 1.22433 11.093 1.31487 10.7381L1.0781 10.6777L0.841328 10.6173C0.729562 11.0554 0.75275 11.6014 0.770453 12.0553L1.01462 12.0458ZM1.0781 10.6777L1.31486 10.7381C1.34617 10.6155 1.40181 10.5627 1.5738 10.453L1.44236 10.247L1.31092 10.041C1.11808 10.164 0.921314 10.304 0.841342 10.6172L1.0781 10.6777ZM1.44236 10.247L1.45817 10.4908C3.42432 10.3634 5.56835 10.7728 7.28548 11.7281L7.40427 11.5146L7.52307 11.301C5.71366 10.2944 3.47398 9.87043 1.42655 10.0032L1.44236 10.247ZM7.40427 11.5146L7.28548 11.7281C7.85376 12.0443 8.36785 12.4327 8.90342 12.8375L9.05076 12.6425L9.19809 12.4476C8.6671 12.0463 8.12615 11.6365 7.52306 11.301L7.40427 11.5146ZM9.05076 12.6425L9.19684 12.8384C9.4965 12.6149 9.79551 12.3939 10.0997 12.1861L9.96189 11.9843L9.82403 11.7826C9.51068 11.9967 9.20457 12.223 8.90468 12.4466L9.05076 12.6425ZM9.96189 11.9843L10.0998 12.1861C11.7158 11.0818 13.6451 10.5333 15.6066 10.4844L15.6006 10.2402L15.5945 9.99588C13.5516 10.0468 11.5278 10.6183 9.82403 11.7826L9.96189 11.9843ZM15.6006 10.2402L15.6067 10.4844C15.6927 10.4823 15.7838 10.4771 15.8704 10.4725L15.8574 10.2284L15.8444 9.98443C15.7541 9.98923 15.6718 9.99395 15.5945 9.99588L15.6006 10.2402ZM15.626 11.7997L15.6239 11.5554C15.4044 11.5572 15.1132 11.5415 14.8526 11.5761L14.8847 11.8183L14.9169 12.0605C15.1376 12.0312 15.3613 12.0463 15.628 12.0441L15.626 11.7997ZM14.8847 11.8183L14.8627 11.5749C14.0209 11.651 13.0583 11.843 12.16 12.1855C11.2636 12.5273 10.4149 13.0253 9.81988 13.7232L10.0058 13.8818L10.1918 14.0403C10.7152 13.4263 11.4825 12.9669 12.3341 12.6422C13.1838 12.3182 14.1015 12.1345 14.9067 12.0617L14.8847 11.8183ZM10.0058 13.8818L9.81918 13.7241C9.76776 13.7849 9.71945 13.847 9.67375 13.9078L9.86912 14.0546L10.0645 14.2014C10.107 14.1448 10.1492 14.0907 10.1925 14.0395L10.0058 13.8818ZM9.86912 14.0546L9.62476 14.0545L9.62183 24.3553L9.86619 24.3554L10.1105 24.3555L10.1135 14.0547L9.86912 14.0546ZM9.86619 24.3554L10.0099 24.5531C10.1985 24.416 10.3722 24.2839 10.5554 24.1567L10.416 23.956L10.2766 23.7553C10.0883 23.8861 9.89965 24.029 9.72251 24.1577L9.86619 24.3554ZM10.416 23.956L10.5413 24.1658C12.0221 23.2812 13.887 23.1234 15.6513 22.9966L15.6338 22.7529L15.6162 22.5091C13.8728 22.6345 11.8875 22.7923 10.2907 23.7462L10.416 23.956ZM15.6338 22.7529L15.8781 22.7529C15.8782 19.1086 15.9268 15.4464 15.8703 11.796L15.626 11.7997L15.3816 11.8035C15.4381 15.4492 15.3895 19.0996 15.3894 22.7529L15.6338 22.7529ZM2.50095 11.8017L2.25667 11.7956C2.21881 13.3241 2.22715 14.8582 2.23511 16.385L2.47947 16.3837L2.72382 16.3824C2.71585 14.8543 2.70759 13.3277 2.74523 11.8077L2.50095 11.8017ZM2.47947 16.3837L2.23511 16.385C2.23841 17.0112 2.24185 17.6364 2.24195 18.2607L2.4863 18.2607L2.73066 18.2606C2.73056 17.6348 2.72711 17.0083 2.72382 16.3824L2.47947 16.3837ZM2.4863 18.2607L2.24195 18.2607C2.24204 18.7182 2.23612 19.1795 2.23025 19.6433L2.47458 19.6464L2.71892 19.6495C2.72479 19.1863 2.73076 18.7218 2.73066 18.2606L2.4863 18.2607ZM2.47458 19.6464H2.23023V19.6503H2.47458H2.71894V19.6464H2.47458ZM2.47458 19.6503L2.23025 19.6472C2.21733 20.672 2.20441 21.7116 2.25593 22.7349L2.49998 22.7226L2.74402 22.7103C2.69341 21.7049 2.70597 20.6807 2.71892 19.6534L2.47458 19.6503ZM2.49998 22.7226L2.47902 22.966C4.5149 23.1413 6.47983 23.3407 8.10443 24.5329L8.249 24.3359L8.39357 24.1389C6.64215 22.8536 4.53792 22.6528 2.52094 22.4791L2.49998 22.7226ZM8.249 24.3359L8.49335 24.3352C8.48338 20.918 8.50212 17.5011 8.54997 14.0844L8.30564 14.081L8.06131 14.0776C8.01342 17.497 7.99466 20.9167 8.00464 24.3366L8.249 24.3359ZM8.30564 14.081L8.48304 13.9129C7.10627 12.4595 4.96567 11.6098 2.99414 11.5545L2.98728 11.7988L2.98042 12.043C4.83862 12.0952 6.85096 12.9006 8.12824 14.249L8.30564 14.081ZM2.98728 11.7988L2.99251 11.5545C2.82587 11.5509 2.65911 11.552 2.49299 11.5575L2.50095 11.8017L2.50891 12.0459C2.66667 12.0408 2.82462 12.0397 2.98205 12.0431L2.98728 11.7988Z" fill="#010101"/>
<path d="M23.3605 11.3527C25.3179 11.3187 28.6145 11.2611 29.7003 11.677C30.5294 11.9946 31.2347 12.6196 31.5959 13.4367C31.9518 14.2423 31.9771 15.308 31.6544 16.1281C31.3097 17.0038 30.6773 17.3739 29.8595 17.7268C29.9226 17.7498 29.9869 17.772 30.0509 17.7941C30.2261 17.8547 30.4026 17.9159 30.5675 17.9973C31.3227 18.3766 31.8999 19.0363 32.175 19.8352C32.5073 20.815 32.3796 21.9125 31.9298 22.8303C31.5944 23.4082 31.1242 23.8555 30.5421 24.1809C30.03 24.4672 29.5235 24.5817 28.9455 24.6584C28.0668 24.7752 22.9695 24.8519 22.3293 24.634C22.243 24.6047 22.1569 24.5718 22.1173 24.4865C22.023 24.2822 22.0101 23.9688 22.0002 23.7277L21.9972 23.6613C21.9358 22.2911 21.956 20.9025 21.9757 19.5197C21.9845 18.9047 21.9927 18.2906 21.9943 17.6799C21.9958 17.0914 21.9883 16.4989 21.9806 15.9055C21.9657 14.7485 21.9512 13.5871 22.0041 12.4426C22.0156 12.1945 22.0367 11.9178 22.1261 11.6848C22.1945 11.5068 22.2818 11.4454 22.4494 11.3664C22.695 11.3647 23.0058 11.3589 23.3605 11.3527ZM28.2541 18.7902C27.5406 18.6202 25.2885 18.738 24.4308 18.7385L24.4318 22.6486C25.4382 22.6506 27.6291 22.7776 28.4914 22.5568C28.8099 22.4753 29.0626 22.3474 29.3048 22.1252C29.6928 21.6678 29.8941 21.2063 29.8361 20.593C29.7844 20.0478 29.5514 19.5839 29.1271 19.2336C28.8737 19.0215 28.5748 18.8698 28.2541 18.7902ZM25.1418 13.3361C24.8702 13.3449 24.6263 13.3524 24.4298 13.3527L24.4318 16.8332C24.6603 16.8338 24.9386 16.8411 25.2423 16.8488C26.2463 16.8745 27.5269 16.9075 28.1955 16.7365C28.5069 16.6568 28.7648 16.5309 29.0138 16.3283C29.3406 15.9325 29.5187 15.4805 29.4767 14.9602C29.4399 14.5027 29.2216 14.055 28.8566 13.7717C28.1693 13.2385 26.3674 13.2966 25.1418 13.3361Z" fill="#010101"/>
<path d="M43.5544 19.1384C43.178 16.3133 40.5822 14.3286 37.7575 14.7062C34.9349 15.0836 32.9522 17.6769 33.3279 20.4994C33.7037 23.3222 36.2959 25.3064 39.1189 24.9326C41.944 24.5577 43.9302 21.9631 43.5544 19.1384ZM38.0878 16.8915C38.6611 16.863 39.1668 16.8728 39.6753 17.1826C40.246 17.5305 40.601 18.1248 40.7556 18.7631C40.9747 19.6681 40.9234 20.9144 40.4144 21.7193C40.0497 22.2959 39.5415 22.5511 38.8981 22.6928C38.2807 22.7548 37.6681 22.6967 37.1391 22.3419C36.5813 21.9675 36.2565 21.3566 36.1303 20.7096C35.951 19.7908 36.0073 18.5969 36.5624 17.8103C36.9434 17.2704 37.4512 17.0042 38.0878 16.8915Z" fill="#010101"/>
<path d="M54.6245 19.107C54.2345 16.2827 51.6248 14.3122 48.8015 14.7103C45.9894 15.1068 44.0287 17.7038 44.4172 20.5169C44.8058 23.3295 47.3974 25.298 50.2114 24.9173C53.0367 24.5351 55.0145 21.9313 54.6245 19.107ZM49.1177 16.892C49.6753 16.8462 50.2148 16.8635 50.7162 17.1444C51.3115 17.4778 51.6751 18.0632 51.8447 18.7095C52.0881 19.6382 52.0401 20.8361 51.5314 21.6732C51.1712 22.2665 50.6576 22.5426 50.0008 22.6902C49.386 22.7699 48.7799 22.7015 48.2511 22.354C47.6867 21.9831 47.3592 21.379 47.2219 20.7305C47.0284 19.8142 47.091 18.6337 47.6256 17.8372C47.9882 17.2967 48.4931 17.0207 49.1177 16.892Z" fill="#010101"/>
<path d="M56.6811 10.9356C56.7197 10.932 56.7583 10.9292 56.7969 10.9278C57.1801 10.9144 58.0334 10.8401 58.2934 11.1909C58.4043 11.3404 58.4204 11.6526 58.4341 11.8369C58.4923 12.6152 58.4454 13.4293 58.4454 14.2109L58.4463 18.8136C58.9908 18.1665 59.6173 17.574 60.1915 16.9514C60.7584 16.3366 61.3034 15.6295 61.9313 15.0819C62.0809 14.9514 62.1943 14.8823 62.3878 14.8296C62.789 14.7203 64.2425 14.6394 64.5484 14.8571C64.6266 14.9127 64.6931 15.0204 64.6872 15.1188C64.6598 15.5568 61.7657 18.4104 61.2613 18.9098C62.1894 20.2587 63.1253 21.6017 64.0695 22.9393C64.3045 23.2804 64.9726 24.0125 64.8866 24.4352C64.868 24.5271 64.7952 24.6078 64.7141 24.6522C64.2801 24.8912 62.6131 24.7339 62.0926 24.5643C61.7207 24.1904 61.4177 23.6499 61.1186 23.2154L59.3075 20.5749L58.4419 21.327C58.4385 22.0195 58.6457 24.057 58.2005 24.5213C58.0011 24.7295 57.7406 24.7456 57.4694 24.748C57.055 24.7524 56.2535 24.8213 55.9505 24.5252C55.8728 23.7276 55.8987 22.9202 55.8982 22.1197L55.8967 18.7012L55.8972 14.017C55.8972 13.1845 55.8674 12.3397 55.906 11.5084C55.9114 11.3966 55.9143 11.3001 55.9808 11.2044C56.1401 10.9739 56.4289 10.9699 56.6811 10.9356Z" fill="#010101"/>
<path d="M74.289 14.7397C74.8354 14.7279 75.9233 14.607 76.4149 14.8106C76.5992 14.8869 76.6827 15.075 76.7653 15.2473C77.1153 15.9768 77.3445 16.8173 77.626 17.5791C78.1161 18.9046 78.6439 20.2156 79.141 21.5381C79.4298 20.7918 81.4247 15.231 81.7517 14.9536C81.912 14.8178 82.2159 14.7887 82.4158 14.7828C82.8366 14.7705 83.6225 14.6775 83.9411 14.9715C84.0217 15.161 84.011 15.2646 83.9646 15.4677C83.8013 16.1769 83.4539 16.9139 83.1992 17.5976L81.5625 21.9965L80.4561 24.9952C80.2337 25.6003 80.0378 26.2478 79.7494 26.8235C79.5886 27.1441 79.3931 27.4447 79.1478 27.7071C78.5599 28.337 77.7907 28.6078 76.9437 28.6371C76.5806 28.6498 75.958 28.7173 75.6779 28.4578C75.4991 28.0961 75.4839 27.2526 75.5993 26.8626C75.7117 26.4829 76.543 26.5552 76.8782 26.3666C77.4178 26.0631 77.5649 25.4654 77.7041 24.9097C77.2707 23.5995 74.008 15.5873 74.0398 15.1342C74.0535 14.9375 74.1463 14.8531 74.289 14.7397Z" fill="#010101"/>
<path d="M68.9284 14.701C69.2021 14.6593 69.5026 14.6706 69.7807 14.6735C70.8867 14.6845 72.1241 14.9176 72.9207 15.7496C73.2867 16.132 73.5536 16.7099 73.5135 17.2487C73.5067 17.3405 73.4813 17.4724 73.4031 17.5277C73.0057 17.8085 71.9213 17.7534 71.4492 17.6899C71.0304 17.6335 71.0626 17.3534 70.8046 17.0469C70.5201 16.7096 70.1042 16.5438 69.6712 16.5124C69.1894 16.4774 68.58 16.6342 68.2212 16.9725C68.0629 17.1219 67.8958 17.5068 67.9217 17.7222C68.0331 18.6616 70.68 18.7824 71.4419 18.9743C72.0879 19.1369 72.7531 19.3789 73.2692 19.8138C73.7588 20.2263 73.9802 20.7883 74.0301 21.4168C74.0912 22.1914 73.8654 22.9333 73.3513 23.5197C72.4579 24.5387 71.1564 24.8383 69.8614 24.9331C68.8659 24.9668 67.7946 24.8304 66.8993 24.3706C66.2498 24.0368 65.6633 23.5153 65.4468 22.7959C65.3579 22.5022 65.2987 22.1582 65.4551 21.8796C65.9077 21.5248 67.1441 21.6636 67.6934 21.6836C67.8787 21.9656 67.992 22.2965 68.2452 22.5301C68.6718 22.9235 69.3013 23.0422 69.8648 23.0144C70.3256 22.9914 70.8163 22.8604 71.1252 22.4944C71.2957 22.2926 71.3944 22.0335 71.369 21.7672C71.2669 20.7018 68.6425 20.7057 67.8303 20.518C67.2438 20.3832 66.6456 20.1452 66.1706 19.7689C65.6702 19.3715 65.3505 18.8372 65.2899 18.1968C65.2225 17.4154 65.4634 16.6386 65.9614 16.0327C66.7136 15.1211 67.7951 14.8117 68.9284 14.701Z" fill="#010101"/>
</g>
</g>
<defs>
<clipPath id="clip0_8342_23566">
<rect width="84" height="36" fill="white" transform="translate(0.5 0.839844)"/>
</clipPath>
<clipPath id="clip1_8342_23566">
<rect width="83" height="21" fill="white" transform="translate(1 8.77832)"/>
</clipPath>
</defs>
</svg>
